<svg viewBox="0 0 900 600" xmlns="http://www.w3.org/2000/svg" aria-label="Argentina flag" role="img">
  <rect width="900" height="600" fill="#FFFFFF"/>
  <rect width="900" height="200" y="0" fill="#74ACDF"/>
  <rect width="900" height="200" y="400" fill="#74ACDF"/>
  <g transform="translate(450 300)">
    <g fill="#F6B40E">
      <polygon points="0,-88 10,-52 -10,-52"/>
      <polygon points="0,88 10,52 -10,52"/>
      <polygon points="88,0 52,10 52,-10"/>
      <polygon points="-88,0 -52,10 -52,-10"/>
      <polygon points="62,-62 44,-34 34,-44"/>
      <polygon points="-62,-62 -44,-34 -34,-44"/>
      <polygon points="62,62 44,34 34,44"/>
      <polygon points="-62,62 -44,34 -34,44"/>
      <polygon points="32,-82 26,-48 10,-52"/>
      <polygon points="-32,-82 -26,-48 -10,-52"/>
      <polygon points="82,-32 48,-26 52,-10"/>
      <polygon points="82,32 48,26 52,10"/>
      <polygon points="32,82 26,48 10,52"/>
      <polygon points="-32,82 -26,48 -10,52"/>
      <polygon points="-82,32 -48,26 -52,10"/>
      <polygon points="-82,-32 -48,-26 -52,-10"/>
    </g>
    <circle r="42" fill="#F6B40E"/>
    <circle r="36" fill="#FFD34D"/>
    <circle cx="-12" cy="-6" r="3.2" fill="#9B6A00"/>
    <circle cx="12" cy="-6" r="3.2" fill="#9B6A00"/>
    <path d="M0 -2 Q4 10 0 14" stroke="#9B6A00" stroke-width="2.5" fill="none" stroke-linecap="round"/>
    <path d="M-12 20 Q0 28 12 20" stroke="#9B6A00" stroke-width="2.5" fill="none" stroke-linecap="round"/>
  </g>
</svg>
