<svg viewBox="0 0 1200 600" xmlns="http://www.w3.org/2000/svg" aria-label="Australia flag" role="img">
  <rect width="1200" height="600" fill="#012169"/>
  <g>
    <rect x="0" y="0" width="600" height="300" fill="#012169"/>
    <polygon points="0,0 70,0 600,230 600,300 530,300 0,70" fill="#FFFFFF"/>
    <polygon points="600,0 530,0 0,230 0,300 70,300 600,70" fill="#FFFFFF"/>
    <polygon points="0,0 35,0 600,265 600,300 565,300 0,35" fill="#C8102E"/>
    <polygon points="600,0 565,0 0,265 0,300 35,300 600,35" fill="#C8102E"/>
    <rect x="240" y="0" width="120" height="300" fill="#FFFFFF"/>
    <rect x="0" y="90" width="600" height="120" fill="#FFFFFF"/>
    <rect x="270" y="0" width="60" height="300" fill="#C8102E"/>
    <rect x="0" y="120" width="600" height="60" fill="#C8102E"/>
  </g>
  <polygon points="300.0,380.0 313.0,423.0 354.7,406.4 329.2,443.3 368.2,465.6 323.5,468.7 330.4,513.1 300.0,480.0 269.6,513.1 276.5,468.7 231.8,465.6 270.8,443.3 245.3,406.4 287.0,423.0" fill="#FFFFFF"/>
  <polygon points="930.0,98.0 937.8,123.8 962.8,113.8 947.5,136.0 970.9,149.3 944.1,151.2 948.2,177.8 930.0,158.0 911.8,177.8 915.9,151.2 889.1,149.3 912.5,136.0 897.2,113.8 922.2,123.8" fill="#FFFFFF"/>
  <polygon points="1030.0,203.0 1037.8,228.8 1062.8,218.8 1047.5,241.0 1070.9,254.3 1044.1,256.2 1048.2,282.8 1030.0,263.0 1011.8,282.8 1015.9,256.2 989.1,254.3 1012.5,241.0 997.2,218.8 1022.2,228.8" fill="#FFFFFF"/>
  <polygon points="930.0,313.0 937.8,338.8 962.8,328.8 947.5,351.0 970.9,364.3 944.1,366.2 948.2,392.8 930.0,373.0 911.8,392.8 915.9,366.2 889.1,364.3 912.5,351.0 897.2,328.8 922.2,338.8" fill="#FFFFFF"/>
  <polygon points="830.0,223.0 837.8,248.8 862.8,238.8 847.5,261.0 870.9,274.3 844.1,276.2 848.2,302.8 830.0,283.0 811.8,302.8 815.9,276.2 789.1,274.3 812.5,261.0 797.2,238.8 822.2,248.8" fill="#FFFFFF"/>
  <polygon points="1020.0,97.0 1024.4,108.9 1037.1,109.4 1027.1,117.3 1030.6,129.6 1020.0,122.5 1009.4,129.6 1012.9,117.3 1002.9,109.4 1015.6,108.9" fill="#FFFFFF"/>
</svg>
