<svg viewBox="0 0 900 600" xmlns="http://www.w3.org/2000/svg" aria-label="India flag" role="img">
  <rect width="900" height="200" y="0" fill="#FF9933"/>
  <rect width="900" height="200" y="200" fill="#FFFFFF"/>
  <rect width="900" height="200" y="400" fill="#138808"/>
  <circle cx="450" cy="300" r="42" fill="none" stroke="#000080" stroke-width="4"/>
  <circle cx="450" cy="300" r="4" fill="#000080"/>
  <line x1="450" y1="300" x2="450.00" y2="258.00" stroke="#000080" stroke-width="2"/>
  <line x1="450" y1="300" x2="460.87" y2="259.43" stroke="#000080" stroke-width="2"/>
  <line x1="450" y1="300" x2="471.00" y2="263.63" stroke="#000080" stroke-width="2"/>
  <line x1="450" y1="300" x2="479.70" y2="270.30" stroke="#000080" stroke-width="2"/>
  <line x1="450" y1="300" x2="486.37" y2="279.00" stroke="#000080" stroke-width="2"/>
  <line x1="450" y1="300" x2="490.57" y2="289.13" stroke="#000080" stroke-width="2"/>
  <line x1="450" y1="300" x2="492.00" y2="300.00" stroke="#000080" stroke-width="2"/>
  <line x1="450" y1="300" x2="490.57" y2="310.87" stroke="#000080" stroke-width="2"/>
  <line x1="450" y1="300" x2="486.37" y2="321.00" stroke="#000080" stroke-width="2"/>
  <line x1="450" y1="300" x2="479.70" y2="329.70" stroke="#000080" stroke-width="2"/>
  <line x1="450" y1="300" x2="471.00" y2="336.37" stroke="#000080" stroke-width="2"/>
  <line x1="450" y1="300" x2="460.87" y2="340.57" stroke="#000080" stroke-width="2"/>
  <line x1="450" y1="300" x2="450.00" y2="342.00" stroke="#000080" stroke-width="2"/>
  <line x1="450" y1="300" x2="439.13" y2="340.57" stroke="#000080" stroke-width="2"/>
  <line x1="450" y1="300" x2="429.00" y2="336.37" stroke="#000080" stroke-width="2"/>
  <line x1="450" y1="300" x2="420.30" y2="329.70" stroke="#000080" stroke-width="2"/>
  <line x1="450" y1="300" x2="413.63" y2="321.00" stroke="#000080" stroke-width="2"/>
  <line x1="450" y1="300" x2="409.43" y2="310.87" stroke="#000080" stroke-width="2"/>
  <line x1="450" y1="300" x2="408.00" y2="300.00" stroke="#000080" stroke-width="2"/>
  <line x1="450" y1="300" x2="409.43" y2="289.13" stroke="#000080" stroke-width="2"/>
  <line x1="450" y1="300" x2="413.63" y2="279.00" stroke="#000080" stroke-width="2"/>
  <line x1="450" y1="300" x2="420.30" y2="270.30" stroke="#000080" stroke-width="2"/>
  <line x1="450" y1="300" x2="429.00" y2="263.63" stroke="#000080" stroke-width="2"/>
  <line x1="450" y1="300" x2="439.13" y2="259.43" stroke="#000080" stroke-width="2"/>
</svg>
