<svg viewBox="0 0 900 600" xmlns="http://www.w3.org/2000/svg" aria-label="South Korea flag" role="img">
  <rect width="900" height="600" fill="#FFFFFF"/>
  <g transform="translate(450 300) rotate(33.69)">
    <path d="M 0 -120 A 120 120 0 0 1 0 120 A 60 60 0 0 0 0 0 A 60 60 0 0 1 0 -120 Z" fill="#CD2E3A"/>
    <path d="M 0 120 A 120 120 0 0 1 0 -120 A 60 60 0 0 0 0 0 A 60 60 0 0 1 0 120 Z" fill="#0047A0"/>
    <circle cx="0" cy="-60" r="60" fill="#CD2E3A"/>
    <circle cx="0" cy="60" r="60" fill="#0047A0"/>
  </g>
  <g transform="translate(175 135) rotate(-33.69)">
    <rect x="-45" y="-36" width="90" height="16" fill="#000000"/>
    <rect x="-45" y="-8" width="90" height="16" fill="#000000"/>
    <rect x="-45" y="20" width="90" height="16" fill="#000000"/>
  </g>
  <g transform="translate(725 135) rotate(33.69)">
    <rect x="-45" y="-36" width="90" height="16" fill="#000000"/>
    <rect x="-45" y="-8" width="28" height="16" fill="#000000"/>
    <rect x="17" y="-8" width="28" height="16" fill="#000000"/>
    <rect x="-45" y="20" width="90" height="16" fill="#000000"/>
  </g>
  <g transform="translate(175 465) rotate(33.69)">
    <rect x="-45" y="-36" width="28" height="16" fill="#000000"/>
    <rect x="17" y="-36" width="28" height="16" fill="#000000"/>
    <rect x="-45" y="-8" width="90" height="16" fill="#000000"/>
    <rect x="-45" y="20" width="28" height="16" fill="#000000"/>
    <rect x="17" y="20" width="28" height="16" fill="#000000"/>
  </g>
  <g transform="translate(725 465) rotate(-33.69)">
    <rect x="-45" y="-36" width="28" height="16" fill="#000000"/>
    <rect x="17" y="-36" width="28" height="16" fill="#000000"/>
    <rect x="-45" y="-8" width="28" height="16" fill="#000000"/>
    <rect x="17" y="-8" width="28" height="16" fill="#000000"/>
    <rect x="-45" y="20" width="28" height="16" fill="#000000"/>
    <rect x="17" y="20" width="28" height="16" fill="#000000"/>
  </g>
</svg>
