<svg viewBox="0 0 1200 600" xmlns="http://www.w3.org/2000/svg" aria-label="New Zealand flag" role="img">
  <rect width="1200" height="600" fill="#012169"/>
  <g>
    <rect x="0" y="0" width="600" height="300" fill="#012169"/>
    <polygon points="0,0 70,0 600,230 600,300 530,300 0,70" fill="#FFFFFF"/>
    <polygon points="600,0 530,0 0,230 0,300 70,300 600,70" fill="#FFFFFF"/>
    <polygon points="0,0 35,0 600,265 600,300 565,300 0,35" fill="#C8102E"/>
    <polygon points="600,0 565,0 0,265 0,300 35,300 600,35" fill="#C8102E"/>
    <rect x="240" y="0" width="120" height="300" fill="#FFFFFF"/>
    <rect x="0" y="90" width="600" height="120" fill="#FFFFFF"/>
    <rect x="270" y="0" width="60" height="300" fill="#C8102E"/>
    <rect x="0" y="120" width="600" height="60" fill="#C8102E"/>
  </g>
  <g>
    <polygon points="905.0,99.0 917.9,132.2 953.5,134.2 925.9,156.8 935.0,191.3 905.0,172.0 875.0,191.3 884.1,156.8 856.5,134.2 892.1,132.2" fill="#FFFFFF"/>
    <polygon points="905.0,106.0 916.2,134.6 946.8,136.4 923.1,155.9 930.9,185.6 905.0,169.0 879.1,185.6 886.9,155.9 863.2,136.4 893.8,134.6" fill="#CC142B"/>
  </g>
  <g>
    <polygon points="1010.0,214.0 1022.9,247.2 1058.5,249.2 1030.9,271.8 1040.0,306.3 1010.0,287.0 980.0,306.3 989.1,271.8 961.5,249.2 997.1,247.2" fill="#FFFFFF"/>
    <polygon points="1010.0,221.0 1021.2,249.6 1051.8,251.4 1028.1,270.9 1035.9,300.6 1010.0,284.0 984.1,300.6 991.9,270.9 968.2,251.4 998.8,249.6" fill="#CC142B"/>
  </g>
  <g>
    <polygon points="905.0,359.0 917.9,392.2 953.5,394.2 925.9,416.8 935.0,451.3 905.0,432.0 875.0,451.3 884.1,416.8 856.5,394.2 892.1,392.2" fill="#FFFFFF"/>
    <polygon points="905.0,366.0 916.2,394.6 946.8,396.4 923.1,415.9 930.9,445.6 905.0,429.0 879.1,445.6 886.9,415.9 863.2,396.4 893.8,394.6" fill="#CC142B"/>
  </g>
  <g>
    <polygon points="790.0,234.0 802.9,267.2 838.5,269.2 810.9,291.8 820.0,326.3 790.0,307.0 760.0,326.3 769.1,291.8 741.5,269.2 777.1,267.2" fill="#FFFFFF"/>
    <polygon points="790.0,241.0 801.2,269.6 831.8,271.4 808.1,290.9 815.9,320.6 790.0,304.0 764.1,320.6 771.9,290.9 748.2,271.4 778.8,269.6" fill="#CC142B"/>
  </g>
</svg>
