<svg viewBox="0 0 900 600" xmlns="http://www.w3.org/2000/svg" aria-label="Philippines flag" role="img">
  <rect width="900" height="300" y="0" fill="#0038A8"/>
  <rect width="900" height="300" y="300" fill="#CE1126"/>
  <polygon points="0,0 0,600 360,300" fill="#FFFFFF"/>
  <circle cx="125" cy="300" r="42" fill="#FCD116"/>
  <g stroke="#FCD116" stroke-width="8" stroke-linecap="round">
    <line x1="125" y1="225" x2="125" y2="190"/>
    <line x1="125" y1="410" x2="125" y2="375"/>
    <line x1="50" y1="300" x2="15" y2="300"/>
    <line x1="235" y1="300" x2="200" y2="300"/>
    <line x1="72" y1="247" x2="45" y2="220"/>
    <line x1="178" y1="247" x2="205" y2="220"/>
    <line x1="72" y1="353" x2="45" y2="380"/>
    <line x1="178" y1="353" x2="205" y2="380"/>
  </g>
  <polygon points="60,40 67,60 88,60 71,73 77,94 60,81 43,94 49,73 32,60 53,60" fill="#FCD116"/>
  <polygon points="60,506 67,526 88,526 71,539 77,560 60,547 43,560 49,539 32,526 53,526" fill="#FCD116"/>
  <polygon points="285,273 292,293 313,293 296,306 302,327 285,314 268,327 274,306 257,293 278,293" fill="#FCD116"/>
</svg>
