<svg viewBox="0 0 7410 3900" xmlns="http://www.w3.org/2000/svg" aria-label="USA flag" role="img">
  <rect width="7410" height="3900" fill="#BF0A30"/>
  <g fill="#FFFFFF">
    <rect y="300" width="7410" height="300"/>
    <rect y="900" width="7410" height="300"/>
    <rect y="1500" width="7410" height="300"/>
    <rect y="2100" width="7410" height="300"/>
    <rect y="2700" width="7410" height="300"/>
    <rect y="3300" width="7410" height="300"/>
  </g>
  <rect width="2964" height="2100" fill="#002868"/>
  <g fill="#FFFFFF">
    <circle cx="247" cy="210" r="55"/><circle cx="741" cy="210" r="55"/><circle cx="1235" cy="210" r="55"/><circle cx="1729" cy="210" r="55"/><circle cx="2223" cy="210" r="55"/><circle cx="2717" cy="210" r="55"/>
    <circle cx="247" cy="630" r="55"/><circle cx="741" cy="630" r="55"/><circle cx="1235" cy="630" r="55"/><circle cx="1729" cy="630" r="55"/><circle cx="2223" cy="630" r="55"/><circle cx="2717" cy="630" r="55"/>
    <circle cx="247" cy="1050" r="55"/><circle cx="741" cy="1050" r="55"/><circle cx="1235" cy="1050" r="55"/><circle cx="1729" cy="1050" r="55"/><circle cx="2223" cy="1050" r="55"/><circle cx="2717" cy="1050" r="55"/>
    <circle cx="247" cy="1470" r="55"/><circle cx="741" cy="1470" r="55"/><circle cx="1235" cy="1470" r="55"/><circle cx="1729" cy="1470" r="55"/><circle cx="2223" cy="1470" r="55"/><circle cx="2717" cy="1470" r="55"/>
    <circle cx="247" cy="1890" r="55"/><circle cx="741" cy="1890" r="55"/><circle cx="1235" cy="1890" r="55"/><circle cx="1729" cy="1890" r="55"/><circle cx="2223" cy="1890" r="55"/><circle cx="2717" cy="1890" r="55"/>
    <circle cx="494" cy="420" r="55"/><circle cx="988" cy="420" r="55"/><circle cx="1482" cy="420" r="55"/><circle cx="1976" cy="420" r="55"/><circle cx="2470" cy="420" r="55"/>
    <circle cx="494" cy="840" r="55"/><circle cx="988" cy="840" r="55"/><circle cx="1482" cy="840" r="55"/><circle cx="1976" cy="840" r="55"/><circle cx="2470" cy="840" r="55"/>
    <circle cx="494" cy="1260" r="55"/><circle cx="988" cy="1260" r="55"/><circle cx="1482" cy="1260" r="55"/><circle cx="1976" cy="1260" r="55"/><circle cx="2470" cy="1260" r="55"/>
    <circle cx="494" cy="1680" r="55"/><circle cx="988" cy="1680" r="55"/><circle cx="1482" cy="1680" r="55"/><circle cx="1976" cy="1680" r="55"/><circle cx="2470" cy="1680" r="55"/>
  </g>
</svg>
