<svg viewBox="0 0 900 600" xmlns="http://www.w3.org/2000/svg" aria-label="Venezuela flag" role="img">
  <rect width="900" height="200" y="0" fill="#F4D900"/>
  <rect width="900" height="200" y="200" fill="#0033A0"/>
  <rect width="900" height="200" y="400" fill="#CF142B"/>
  <g fill="#FFFFFF">
    <polygon points="450,210 456,226 473,226 459,236 465,252 450,242 435,252 441,236 427,226 444,226"/>
    <polygon points="395,220 401,236 418,236 404,246 410,262 395,252 380,262 386,246 372,236 389,236"/>
    <polygon points="340,245 346,261 363,261 349,271 355,287 340,277 325,287 331,271 317,261 334,261"/>
    <polygon points="505,220 511,236 528,236 514,246 520,262 505,252 490,262 496,246 482,236 499,236"/>
    <polygon points="560,245 566,261 583,261 569,271 575,287 560,277 545,287 551,271 537,261 554,261"/>
    <polygon points="615,290 621,306 638,306 624,316 630,332 615,322 600,332 606,316 592,306 609,306"/>
    <polygon points="285,290 291,306 308,306 294,316 300,332 285,322 270,332 276,316 262,306 279,306"/>
    <polygon points="450,300 456,316 473,316 459,326 465,342 450,332 435,342 441,326 427,316 444,316"/>
  </g>
</svg>
